<svg width="101" height="100" viewBox="0 0 101 100" fill="none" xmlns="http://www.w3.org/2000/svg">
<path d="M50.0569 99.7509C77.7026 99.7509 100.114 77.4209 100.114 49.8755C100.114 22.33 77.7026 0 50.0569 0C22.4112 0 0 22.33 0 49.8755C0 77.4209 22.4112 99.7509 50.0569 99.7509Z" fill="#F4FDFF"/>
<g clip-path="url(#clip0)">
<path d="M72.8004 75.9002L22.7004 75.7002C21.0004 75.7002 19.6004 74.3002 19.7004 72.6002L19.9004 22.0002C19.9004 20.3002 21.3004 18.9002 23.0004 19.0002L73.1004 19.2002C74.8004 19.2002 76.2004 20.6002 76.1004 22.3002L75.9004 72.9002C75.9004 74.5002 74.5004 75.9002 72.8004 75.9002Z" fill="white"/>
<path d="M79.6008 30.1V21.9C79.6008 19.4 78.2008 17.3 76.6008 17.3L26.4008 17C24.7008 17 23.3008 19 23.3008 21.5V30.1H79.6008Z" fill="#F39800"/>
<path d="M16.4008 65.8999L16.3008 73.6999C16.3008 76.0999 17.6008 77.9999 19.3008 78.0999L69.4008 78.6999C71.1008 78.6999 72.5008 76.7999 72.5008 74.3999L72.6008 66.1999L16.4008 65.8999Z" fill="#009EB0"/>
<path d="M72.8004 75.9002L22.7004 75.7002C21.0004 75.7002 19.6004 74.3002 19.7004 72.6002L19.9004 22.0002C19.9004 20.3002 21.3004 18.9002 23.0004 19.0002L73.1004 19.2002C74.8004 19.2002 76.2004 20.6002 76.1004 22.3002L75.9004 72.9002C75.9004 74.5002 74.5004 75.9002 72.8004 75.9002Z" stroke="#574E56" stroke-width="1.73" stroke-miterlimit="10"/>
<path d="M24.9004 51.1C26.0004 50.3 27.5004 49.9 28.9004 50H45.2004" stroke="#574E56" stroke-width="1.73" stroke-miterlimit="10" stroke-linecap="round" stroke-linejoin="round"/>
<path d="M44.2008 54.3999H26.0008C25.6008 54.3999 25.2008 54.3999 24.8008 54.3999H44.2008Z" stroke="#574E56" stroke-width="1.73" stroke-miterlimit="10" stroke-linecap="round" stroke-linejoin="round"/>
<path d="M25.5 59.1001C29.2 58.2001 33.1 58.2001 36.9 58.9001C38.2 59.2001 39.5 59.5001 40.9 59.6001C42.3 59.7001 43.7 59.3001 44.5 58.4001C44.1 58.3001 43.7 58.2001 43.3 58.1001" stroke="#574E56" stroke-width="1.73" stroke-miterlimit="10" stroke-linecap="round" stroke-linejoin="round"/>
<path d="M41.1004 42.8001H9.80039C7.60039 42.8001 5.90039 41.0001 5.90039 38.9001V36.0001C5.90039 33.8001 7.70039 32.1001 9.80039 32.1001H41.1004C43.3004 32.1001 45.0004 33.9001 45.0004 36.0001V38.8001C45.0004 41.0001 43.3004 42.8001 41.1004 42.8001Z" fill="white" stroke="#574E56" stroke-width="1.73" stroke-miterlimit="10" stroke-linecap="round" stroke-linejoin="round"/>
<path d="M67.7 52.2001H55.4C53.2 52.2001 51.5 50.4001 51.5 48.3001V36.0001C51.5 33.8001 53.3 32.1001 55.4 32.1001H67.7C69.9 32.1001 71.6 33.9001 71.6 36.0001V48.3001C71.6 50.5001 69.9 52.2001 67.7 52.2001Z" fill="white"/>
<path d="M67.7 52.2001H55.4C53.2 52.2001 51.5 50.4001 51.5 48.3001V36.0001C51.5 33.8001 53.3 32.1001 55.4 32.1001H67.7C69.9 32.1001 71.6 33.9001 71.6 36.0001V48.3001C71.6 50.5001 69.9 52.2001 67.7 52.2001Z" stroke="#574E56" stroke-width="1.73" stroke-linecap="round" stroke-linejoin="round" stroke-dasharray="3.08 3.08"/>
<path d="M36.9004 32V42.8" stroke="#574E56" stroke-width="1.73" stroke-miterlimit="10" stroke-linecap="round" stroke-linejoin="round"/>
<path d="M51.3004 71.2002C50.0004 71.6002 49.4004 73.1002 49.4004 74.4002C49.5004 75.7002 50.6004 79.0002 51.3004 80.1002C52.2004 81.6002 53.5004 83.6002 54.5004 85.1002C56.1004 87.5002 57.1004 89.6002 59.8004 90.6002C60.9004 91.0002 62.1004 91.1002 63.3004 91.2002C65.3004 91.4002 67.4004 91.6002 69.4004 91.8002C70.8004 91.9002 72.2004 92.1002 73.5004 91.7002C75.5004 91.2002 77.1004 89.7002 78.0004 87.9002C79.0004 86.1002 79.4004 84.1002 79.5004 82.0002C79.8004 78.3002 79.5004 74.6002 78.6004 71.0002C78.3004 69.9002 77.9004 68.7002 76.8004 68.4002C75.6004 68.0002 74.1004 68.9002 74.0004 70.1002C73.9004 71.4002 73.8004 72.5002 74.0004 73.7002C73.6004 71.2002 74.3004 68.8002 72.6004 67.3002C71.4004 66.2002 68.6004 67.1002 68.6004 68.7002C68.6004 70.9002 68.6004 71.5002 68.8004 73.5002C68.7004 71.9002 68.8004 70.4002 68.7004 68.8002C68.6004 67.2002 67.7004 65.4002 66.1004 65.4002C64.5004 65.4002 64.0004 66.4002 63.8004 68.0002C63.6004 69.6002 63.6004 71.8002 63.2004 73.3002C63.9004 68.7002 64.2004 64.0002 63.9004 59.4002C63.8004 58.3002 63.7004 57.2002 63.1004 56.3002C62.5004 55.4002 61.2004 54.8002 60.3004 55.4002C59.3004 55.9002 59.2004 57.2002 59.1004 58.4002C58.9004 63.1002 58.6004 67.9002 58.4004 72.6002C58.3004 74.4002 58.8004 76.4002 56.5004 75.5002C54.9004 74.8002 53.6004 70.5002 51.3004 71.2002Z" fill="#D5D4D6"/>
<path d="M51.3004 71.2002C50.0004 71.6002 49.4004 73.1002 49.4004 74.4002C49.5004 75.7002 50.6004 79.0002 51.3004 80.1002C52.2004 81.6002 53.5004 83.6002 54.5004 85.1002C56.1004 87.5002 57.1004 89.6002 59.8004 90.6002C60.9004 91.0002 62.1004 91.1002 63.3004 91.2002C65.3004 91.4002 67.4004 91.6002 69.4004 91.8002C70.8004 91.9002 72.2004 92.1002 73.5004 91.7002C75.5004 91.2002 77.1004 89.7002 78.0004 87.9002C79.0004 86.1002 79.4004 84.1002 79.5004 82.0002C79.8004 78.3002 79.5004 74.6002 78.6004 71.0002C78.3004 69.9002 77.9004 68.7002 76.8004 68.4002C75.6004 68.0002 74.1004 68.9002 74.0004 70.1002C73.9004 71.4002 73.8004 72.5002 74.0004 73.7002C73.6004 71.2002 74.3004 68.8002 72.6004 67.3002C71.4004 66.2002 68.6004 67.1002 68.6004 68.7002C68.6004 70.9002 68.6004 71.5002 68.8004 73.5002C68.7004 71.9002 68.8004 70.4002 68.7004 68.8002C68.6004 67.2002 67.7004 65.4002 66.1004 65.4002C64.5004 65.4002 64.0004 66.4002 63.8004 68.0002C63.6004 69.6002 63.6004 71.8002 63.2004 73.3002C63.9004 68.7002 64.2004 64.0002 63.9004 59.4002C63.8004 58.3002 63.7004 57.2002 63.1004 56.3002C62.5004 55.4002 61.2004 54.8002 60.3004 55.4002C59.3004 55.9002 59.2004 57.2002 59.1004 58.4002C58.9004 63.1002 58.6004 67.9002 58.4004 72.6002C58.3004 74.4002 58.8004 76.4002 56.5004 75.5002C54.9004 74.8002 53.6004 70.5002 51.3004 71.2002Z" stroke="#574E56" stroke-width="1.73" stroke-miterlimit="10" stroke-linecap="round" stroke-linejoin="round"/>
<path d="M65.2 49.7001H57.9C55.7 49.7001 54 47.9001 54 45.8001V38.5001C54 36.3001 55.8 34.6001 57.9 34.6001H65.2C67.4 34.6001 69.1 36.4001 69.1 38.5001V45.8001C69.2 48.0001 67.4 49.7001 65.2 49.7001Z" fill="#F39800"/>
</g>
<defs>
<clipPath id="clip0">
<rect width="75.6" height="75.8" fill="white" transform="translate(5 17)"/>
</clipPath>
</defs>
</svg>
