<svg width="98" height="99" viewBox="0 0 98 99" fill="none" xmlns="http://www.w3.org/2000/svg">
<path d="M49 98.0204C76.062 98.0204 98 76.0778 98 49.0102C98 21.9426 76.062 0 49 0C21.938 0 0 21.9426 0 49.0102C0 76.0778 21.938 98.0204 49 98.0204Z" fill="#F4FDFF"/>
<g clip-path="url(#clip0)">
<path d="M53.6009 30.8997C55.2009 30.8997 56.9009 31.0997 57.9009 32.2997C58.5009 33.1997 58.6009 34.2997 58.5009 35.3997C58.4009 42.2997 58.4009 49.1997 58.3009 56.1997C58.3009 56.5997 58.3009 56.9997 58.1009 57.3997C57.7009 58.0997 56.7009 58.2997 55.8009 58.2997C44.1009 58.6997 32.3009 58.3997 20.7009 57.2997C20.4009 57.2997 20.1009 57.1997 19.9009 56.9997C19.7009 56.7997 19.7009 56.4997 19.7009 56.1997C19.7009 50.9997 19.7009 45.7997 19.7009 40.6997C19.7009 36.1997 18.1009 31.7997 23.0009 30.9997C32.7009 29.2997 43.9009 30.8997 53.6009 30.8997Z" fill="#F39800"/>
<path d="M63.9009 56.3C63.9009 56.6 64.0009 57 64.2009 57.3C64.5009 57.6 65.0009 57.7 65.4009 57.7C70.9009 57.9 76.4009 57.9 81.9009 57.8C81.9009 56.6 82.0009 55.3 82.0009 54.1C82.0009 53.7 82.0009 53.4 81.8009 53.1C81.6009 52.8 81.1009 52.7 80.7009 52.7C76.8009 52.4 72.8009 52.3 68.9009 52.5C64.8009 52.6 63.5009 52 63.9009 56.3Z" fill="#F39800"/>
<path d="M51.6009 32.5998C53.2009 32.5998 54.9009 32.7998 55.9009 33.9998C56.5009 34.8998 56.6009 35.9998 56.5009 37.0998C56.4009 43.9998 56.4009 50.8998 56.3009 57.8998C56.3009 58.2998 56.3009 58.6998 56.1009 59.0998C55.7009 59.7998 54.7009 59.9998 53.8009 59.9998C42.1009 60.3998 30.3009 60.0998 18.7009 58.9998C18.4009 58.9998 18.1009 58.8998 17.9009 58.6998C17.7009 58.4998 17.7009 58.1998 17.7009 57.8998C17.7009 52.6998 17.7009 47.4998 17.7009 42.3998C17.7009 37.8998 16.1009 33.4998 21.0009 32.6998C30.6009 30.8998 41.8009 32.5998 51.6009 32.5998Z" stroke="#574E56" stroke-width="1.73" stroke-miterlimit="10"/>
<path d="M78.8 36.5C73.7 36.7 68.6 37 63.5 37.2C69.1 37.2 73.3 36.5 78.8 36.5Z" stroke="#574E56" stroke-width="1.73" stroke-miterlimit="10" stroke-linecap="round" stroke-linejoin="round"/>
<path d="M63.5 42.1998C68.9 42.0998 74.4 41.8998 79.8 41.7998" stroke="#574E56" stroke-width="1.73" stroke-miterlimit="10" stroke-linecap="round" stroke-linejoin="round"/>
<path d="M63.9004 47.3C69.0004 47.5 74.1004 47.4 79.2004 47" stroke="#574E56" stroke-width="1.73" stroke-miterlimit="10" stroke-linecap="round" stroke-linejoin="round"/>
<path d="M62.1001 57.5999C62.1001 57.8999 62.2001 58.2999 62.4001 58.5999C62.7001 58.8999 63.2001 58.9999 63.6001 58.9999C69.1001 59.1999 74.6001 59.1999 80.1001 59.0999C80.1001 57.8999 80.2001 56.5999 80.2001 55.3999C80.2001 54.9999 80.2001 54.6999 80.0001 54.3999C79.8001 54.0999 79.3001 53.9999 78.9001 53.9999C75.0001 53.6999 71.0001 53.5999 67.1001 53.7999C63.0001 53.8999 61.7001 53.2999 62.1001 57.5999Z" stroke="#574E56" stroke-width="1.73" stroke-miterlimit="10" stroke-linecap="round" stroke-linejoin="round"/>
<path d="M85.8004 68.4999H12.0004C9.70039 68.4999 7.90039 66.6999 7.90039 64.3999V27.9999C7.90039 25.6999 9.70039 23.8999 12.0004 23.8999H85.8004C88.1004 23.8999 89.9004 25.6999 89.9004 27.9999V64.3999C89.9004 66.5999 88.1004 68.4999 85.8004 68.4999Z" stroke="#574E56" stroke-width="1.73" stroke-linecap="round" stroke-linejoin="round" stroke-dasharray="2.01 2.01"/>
<path d="M17.7012 57.8999C22.3012 53.8999 28.4012 47.6999 32.1012 42.8999C35.7012 45.8999 39.2012 48.9999 42.8012 51.9999C43.8012 51.1999 44.8012 50.3999 45.8012 49.6999C45.9012 49.5999 46.1012 49.4999 46.3012 49.4999C46.5012 49.4999 46.7012 49.5999 46.8012 49.6999C49.3012 51.2999 53.9012 54.7999 56.4012 56.4999" stroke="#574E56" stroke-width="1.73" stroke-miterlimit="10" stroke-linecap="round" stroke-linejoin="round"/>
<path d="M49.9 83.8C55.3676 83.8 59.8 79.3676 59.8 73.9C59.8 68.4324 55.3676 64 49.9 64C44.4324 64 40 68.4324 40 73.9C40 79.3676 44.4324 83.8 49.9 83.8Z" fill="#009EB0"/>
<path d="M48.9 85.4001C54.3676 85.4001 58.8 80.9677 58.8 75.5001C58.8 70.0325 54.3676 65.6001 48.9 65.6001C43.4324 65.6001 39 70.0325 39 75.5001C39 80.9677 43.4324 85.4001 48.9 85.4001Z" stroke="#574E56" stroke-width="1.73" stroke-miterlimit="10"/>
<path d="M49.4008 70.6001V75.2001H53.8008V76.4001H49.4008V81.0001H48.2008V76.4001H43.8008V75.2001H48.2008V70.6001H49.4008Z" fill="white"/>
</g>
<defs>
<clipPath id="clip0">
<rect width="83.8" height="63.3" fill="white" transform="translate(7 23)"/>
</clipPath>
</defs>
</svg>
