<svg width="40" height="27" viewBox="0 0 40 27" fill="none" xmlns="http://www.w3.org/2000/svg">
<g clip-path="url(#clip0)">
<path d="M12.3896 26.9353C5.55844 26.9353 0 21.3966 0 14.5811C0 7.76563 5.55844 2.2356 12.3896 2.2356C13.8268 2.2356 14.987 3.39164 14.987 4.82375C14.987 6.25587 13.8268 7.41191 12.3896 7.41191C8.42424 7.41191 5.19481 10.6299 5.19481 14.5811C5.19481 18.5324 8.42424 21.7589 12.3983 21.7589C16.3723 21.7589 19.6017 18.541 19.6017 14.5811C19.6017 13.149 20.7619 11.993 22.1991 11.993C23.6364 11.993 24.7965 13.149 24.7965 14.5811C24.7792 21.3966 19.2208 26.9353 12.3896 26.9353Z" fill="#D5D4D6"/>
<path d="M14.4677 26.176C7.63657 26.176 2.07812 20.6374 2.07812 13.8305C2.07812 7.02365 7.63657 1.48499 14.4677 1.48499C15.905 1.48499 17.0651 2.64103 17.0651 4.07314C17.0651 5.50526 15.905 6.6613 14.4677 6.6613C10.4937 6.6613 7.26427 9.87925 7.26427 13.8391C7.26427 17.799 10.4937 21.017 14.4677 21.017C18.4418 21.017 21.6712 17.799 21.6712 13.8391C21.6712 12.407 22.8314 11.251 24.2686 11.251C25.7058 11.251 26.866 12.407 26.866 13.8391C26.8573 20.6374 21.2989 26.176 14.4677 26.176Z" stroke="#574E56" stroke-width="1.73" stroke-miterlimit="10"/>
<path d="M25.325 1.48499C32.1562 1.48499 37.7146 7.02365 37.7146 13.8305C37.7146 20.6374 32.1562 26.176 25.325 26.176C23.8878 26.176 22.7276 25.02 22.7276 23.5879C22.7276 22.1558 23.8878 20.9997 25.325 20.9997C29.2991 20.9997 32.5285 17.7818 32.5285 13.8219C32.5285 9.86199 29.2991 6.64405 25.325 6.64405C21.351 6.64405 18.1216 9.86199 18.1216 13.8219C18.1216 15.254 16.9614 16.41 15.5242 16.41C14.0869 16.41 12.9268 15.254 12.9268 13.8219C12.9354 7.02365 18.4939 1.48499 25.325 1.48499Z" fill="#D5D4D6"/>
<path d="M26.8572 1.01917C33.6884 1.01917 39.2469 6.55783 39.2469 13.3647C39.2469 20.1715 33.6884 25.7102 26.8572 25.7102C25.42 25.7102 24.2598 24.5542 24.2598 23.122C24.2598 21.6899 25.42 20.5339 26.8572 20.5339C30.8313 20.5339 34.0607 17.3159 34.0607 13.3561C34.0607 9.39617 30.8313 6.17823 26.8572 6.17823C22.8832 6.17823 19.6538 9.39617 19.6538 13.3561C19.6538 14.7882 18.4936 15.9442 17.0564 15.9442C15.6192 15.9442 14.459 14.7882 14.459 13.3561C14.4676 6.55783 20.0261 1.01917 26.8572 1.01917Z" stroke="#574E56" stroke-width="1.73" stroke-miterlimit="10"/>
</g>
<defs>
<clipPath id="clip0">
<rect width="40" height="26.6667" fill="white" transform="translate(0 0.268555)"/>
</clipPath>
</defs>
</svg>
