<svg width="75" height="70" viewBox="0 0 75 70" fill="none" xmlns="http://www.w3.org/2000/svg">
<g clip-path="url(#clip0)">
<path d="M51.806 69.3726C51.5353 69.3726 51.2645 69.283 50.9937 69.1037L43.3223 63.4571C43.1418 63.2779 42.6905 63.009 42.51 62.3816C42.2392 61.4853 42.7807 60.8579 42.9612 60.589C44.9468 58.169 47.0226 55.749 49.0984 53.4187C49.5497 52.8809 50.4522 52.7913 50.9937 53.3291C51.5353 53.7772 51.6255 54.6735 51.084 55.2113C49.1887 57.3624 47.2934 59.6031 45.4883 61.8438L52.6183 67.1319C53.2501 67.58 53.3403 68.3867 52.889 69.0141C52.6183 69.1934 52.167 69.3726 51.806 69.3726Z" fill="#009EB0"/>
<path d="M67.5095 69.3726C67.1485 69.3726 66.7875 69.283 66.5167 69.0141C65.9752 68.4763 65.9752 67.6696 66.5167 67.1319C68.412 65.2497 70.3074 63.2778 72.0222 61.2164C72.1124 61.1267 72.2027 61.0371 72.2027 60.9475C72.1124 60.8579 72.1124 60.8579 72.0222 60.7682L66.246 55.3009C65.7045 54.7631 65.7045 53.9565 66.246 53.4187C66.7875 52.8809 67.5998 52.8809 68.1413 53.4187L73.9175 58.886C74.2785 59.1549 74.82 59.7823 74.9102 60.6786C75.0005 61.7541 74.3687 62.5608 74.098 62.9193C72.2929 65.0704 70.3976 67.1319 68.412 69.1037C68.2315 69.1933 67.8705 69.3726 67.5095 69.3726Z" fill="#009EB0"/>
<path d="M53.3403 68.297C53.0695 68.297 52.889 68.2074 52.7085 68.1178L46.3005 63.3675C46.12 63.2778 45.759 63.0089 45.6688 62.4712C45.4883 61.7541 45.9395 61.2164 46.12 61.0371C47.7446 59.0653 49.4594 57.0038 51.1742 55.032C51.5352 54.5839 52.2572 54.4942 52.7085 54.9424C53.1598 55.3009 53.25 56.0179 52.7987 56.4661C51.1742 58.2586 49.6399 60.1408 48.1056 62.023L54.0623 66.4148C54.5135 66.7734 54.6941 67.4904 54.333 67.9385C54.0623 68.1178 53.7013 68.297 53.3403 68.297Z" stroke="#574E56" stroke-width="1.73" stroke-miterlimit="10" stroke-linecap="round" stroke-linejoin="round"/>
<path d="M66.5168 68.297C66.246 68.297 65.9753 68.2074 65.7045 67.9385C65.2532 67.4904 65.2532 66.7734 65.7045 66.4148C67.3291 64.8912 68.8633 63.1882 70.3074 61.4853C70.3976 61.3956 70.3976 61.306 70.4879 61.306C70.3976 61.2164 70.3976 61.2164 70.3074 61.1267L65.524 56.5557C65.0727 56.1075 65.0727 55.4801 65.524 55.032C65.9753 54.5839 66.607 54.5839 67.0583 55.032L71.8417 59.6031C72.1124 59.8719 72.654 60.3201 72.7442 61.0371C72.8345 61.9334 72.2929 62.5608 72.0222 62.9193C70.5781 64.7119 68.9536 66.4148 67.329 68.0282C67.0583 68.1178 66.7875 68.297 66.5168 68.297Z" stroke="#574E56" stroke-width="1.73" stroke-miterlimit="10" stroke-linecap="round" stroke-linejoin="round"/>
<path d="M55.0547 69.8208C56.0475 70.2689 57.4013 69.8208 58.033 68.9245C58.3038 68.4763 58.4843 67.9385 58.6648 67.4008C59.5673 64.3534 60.3796 61.3957 61.2821 58.3483C61.6431 57.0038 64.441 50.7298 60.9211 52.5224C59.1161 53.4187 58.3038 58.4379 57.7623 60.1408C56.589 63.3675 55.6865 66.5941 55.0547 69.8208Z" fill="#009EB0"/>
<path d="M56.0488 68.7452C56.9514 69.1037 57.9441 68.7452 58.4857 68.0282C58.7564 67.6696 58.8467 67.2215 59.0272 66.7734C59.7492 64.2638 60.4712 61.7542 61.1932 59.2445C61.5542 58.0794 63.8106 52.8809 60.8322 54.315C59.3882 55.032 58.6662 59.2445 58.2149 60.6786C57.3124 63.3675 56.5903 66.0563 56.0488 68.7452Z" stroke="#574E56" stroke-width="1.73" stroke-miterlimit="10" stroke-linecap="round" stroke-linejoin="round"/>
<path d="M19.9458 39.6159C19.9458 39.7951 20.036 40.064 20.1263 40.2433C20.3068 40.4226 20.5775 40.5122 20.9385 40.5122C24.4584 40.6914 27.9783 40.6914 31.4981 40.6018C31.4981 39.7951 31.5884 38.9885 31.5884 38.2715C31.5884 38.0026 31.5884 37.8233 31.4079 37.6441C31.2274 37.4648 30.9566 37.3752 30.6858 37.3752C28.1588 37.1959 25.6317 37.1063 23.1949 37.2855C20.4873 37.2855 19.675 36.8374 19.9458 39.6159Z" fill="#009EB0"/>
<path d="M29.4231 27.0679C26.174 27.2471 22.9249 27.3368 19.6758 27.516C23.1956 27.4264 25.9032 27.0679 29.4231 27.0679Z" stroke="#574E56" stroke-width="1.73" stroke-miterlimit="10" stroke-linecap="round" stroke-linejoin="round"/>
<path d="M19.6758 30.653C23.1054 30.5634 26.6252 30.4738 30.0548 30.3841" stroke="#574E56" stroke-width="1.73" stroke-miterlimit="10" stroke-linecap="round" stroke-linejoin="round"/>
<path d="M19.8555 33.8797C23.1046 33.9693 26.3537 33.9693 29.6028 33.7004" stroke="#574E56" stroke-width="1.73" stroke-miterlimit="10" stroke-linecap="round" stroke-linejoin="round"/>
<path d="M18.7719 40.4226C18.7719 40.6018 18.8622 40.8707 18.9524 41.05C19.133 41.2292 19.4037 41.3188 19.7647 41.3188C23.2846 41.4981 26.8044 41.4981 30.3243 41.4085C30.3243 40.6018 30.4145 39.7952 30.4145 39.0781C30.4145 38.8092 30.4145 38.63 30.234 38.4507C30.0535 38.2715 29.7828 38.1818 29.512 38.1818C26.9849 38.0026 24.4579 37.913 22.021 38.0922C19.3135 38.0922 18.5012 37.6441 18.7719 40.4226Z" stroke="#574E56" stroke-width="1.73" stroke-miterlimit="10" stroke-linecap="round" stroke-linejoin="round"/>
<path d="M32.5821 8.96287C33.3041 8.96287 34.2066 9.0525 34.6579 9.59027C34.9286 10.0384 34.9286 10.5762 34.9286 11.0243C34.9286 14.3406 34.8384 17.5672 34.8384 20.8835C34.8384 21.0627 34.8384 21.242 34.7481 21.4213C34.5676 21.7798 34.0261 21.8694 33.6651 21.8694C28.0694 22.0487 22.4738 21.8694 16.8781 21.4213C16.6976 21.4213 16.6073 21.4213 16.5171 21.242C16.4268 21.1524 16.4268 20.9731 16.4268 20.8835C16.4268 18.4635 16.4268 15.9539 16.4268 13.5339C16.4268 11.3828 15.6146 9.32138 18.0514 8.87324C22.564 8.24584 27.8889 8.96287 32.5821 8.96287Z" fill="#F39800"/>
<path d="M31.5883 9.76955C32.3104 9.76955 33.2129 9.85918 33.6642 10.3969C33.9349 10.8451 33.9349 11.3829 33.9349 11.831C33.9349 15.1473 33.8447 18.3739 33.8447 21.6902C33.8447 21.8694 33.8447 22.0487 33.7544 22.2279C33.5739 22.5864 33.0324 22.6761 32.6714 22.6761C27.0757 22.8553 21.48 22.6761 15.8844 22.2279C15.7039 22.2279 15.6136 22.2279 15.5234 22.0487C15.3429 22.0487 15.3429 21.959 15.3429 21.7798C15.3429 19.3598 15.3429 16.8502 15.3429 14.4302C15.3429 12.2792 14.5306 10.2177 16.9674 9.76955C21.5703 9.05252 26.8952 9.76955 31.5883 9.76955Z" stroke="#574E56" stroke-width="1.73" stroke-miterlimit="10"/>
<path d="M15.3438 21.7798C17.5098 19.8976 20.4882 16.9398 22.203 14.6095C23.9178 16.0436 25.6326 17.4776 27.3474 18.9117C27.7986 18.5532 28.3401 18.1946 28.7914 17.8361C28.8817 17.7465 28.9719 17.7465 29.0622 17.7465C29.1524 17.7465 29.2427 17.8361 29.3329 17.8361C30.5062 18.6428 32.6723 20.2561 33.9358 21.0628" stroke="#574E56" stroke-width="1.73" stroke-miterlimit="10" stroke-linecap="round" stroke-linejoin="round"/>
<path d="M42.1489 39.6159C42.1489 39.7951 42.2391 40.064 42.3294 40.2433C42.5099 40.4226 42.7807 40.5122 43.1417 40.5122C46.6615 40.6914 50.1814 40.6914 53.7012 40.6018C53.7012 39.7951 53.7915 38.9885 53.7915 38.2715C53.7915 38.0026 53.7915 37.8233 53.611 37.6441C53.4305 37.4648 53.1597 37.3752 52.889 37.3752C50.3619 37.1959 47.8348 37.1063 45.398 37.2855C42.6904 37.2855 41.8781 36.8374 42.1489 39.6159Z" fill="#009EB0"/>
<path d="M51.7141 27.0679C48.465 27.2471 45.2159 27.3368 41.9668 27.516C45.4867 27.4264 48.1942 27.0679 51.7141 27.0679Z" stroke="#574E56" stroke-width="1.73" stroke-miterlimit="10" stroke-linecap="round" stroke-linejoin="round"/>
<path d="M41.9668 30.653C45.3964 30.5634 48.9163 30.4738 52.3459 30.3841" stroke="#574E56" stroke-width="1.73" stroke-miterlimit="10" stroke-linecap="round" stroke-linejoin="round"/>
<path d="M42.1484 33.8797C45.3975 33.9693 48.6466 33.9693 51.8957 33.7004" stroke="#574E56" stroke-width="1.73" stroke-miterlimit="10" stroke-linecap="round" stroke-linejoin="round"/>
<path d="M40.9753 40.4226C40.9753 40.6018 41.0655 40.8707 41.1558 41.05C41.3363 41.2292 41.6071 41.3188 41.9681 41.3188C45.4879 41.4981 49.0078 41.4981 52.5276 41.4085C52.5276 40.6018 52.6179 39.7952 52.6179 39.0781C52.6179 38.8092 52.6179 38.63 52.4374 38.4507C52.2569 38.2715 51.9861 38.1818 51.7154 38.1818C49.1883 38.0026 46.6612 37.913 44.2244 38.0922C41.5168 38.0922 40.7948 37.6441 40.9753 40.4226Z" stroke="#574E56" stroke-width="1.73" stroke-miterlimit="10" stroke-linecap="round" stroke-linejoin="round"/>
<path d="M54.8731 8.96287C55.5951 8.96287 56.4976 9.0525 56.9489 9.59027C57.2197 10.0384 57.2197 10.5762 57.2197 11.0243C57.2197 14.3406 57.1294 17.5672 57.1294 20.8835C57.1294 21.0627 57.1294 21.242 57.0392 21.4213C56.8587 21.7798 56.3171 21.8694 55.9561 21.8694C50.3605 22.0487 44.7648 21.8694 39.1691 21.4213C38.9886 21.4213 38.8984 21.4213 38.8081 21.242C38.7179 21.1524 38.7179 20.9731 38.7179 20.8835C38.7179 18.4635 38.7179 15.9539 38.7179 13.5339C38.7179 11.3828 37.9056 9.32138 40.3424 8.87324C44.855 8.24584 50.1799 8.96287 54.8731 8.96287Z" fill="#F39800"/>
<path d="M53.8809 9.76954C54.6029 9.76954 55.5055 9.85917 55.9567 10.3969C56.2275 10.8451 56.2275 11.3829 56.2275 11.831C56.2275 15.1473 56.1372 18.3739 56.1372 21.6902C56.1372 21.8694 56.1372 22.0487 56.047 22.2279C55.8665 22.5864 55.3249 22.6761 54.9639 22.6761C49.3683 22.8553 43.7726 22.6761 38.1769 22.2279C37.9964 22.2279 37.9062 22.2279 37.8159 22.0487C37.7257 21.959 37.7257 21.7798 37.7257 21.6902C37.7257 19.2702 37.7257 16.7606 37.7257 14.3406C37.7257 12.1895 36.9134 10.1281 39.3502 9.67991C43.8629 9.05251 49.1878 9.76954 53.8809 9.76954Z" stroke="#574E56" stroke-width="1.73" stroke-miterlimit="10"/>
<path d="M37.6348 21.7798C39.8008 19.8976 42.7792 16.9398 44.494 14.6095C46.2088 16.0436 47.9236 17.4776 49.6384 18.9117C50.0896 18.5532 50.6312 18.1946 51.0824 17.8361C51.1727 17.7465 51.2629 17.7465 51.3532 17.7465C51.4434 17.7465 51.5337 17.8361 51.6239 17.8361C52.7972 18.6428 54.9633 20.2561 56.2268 21.0628" stroke="#574E56" stroke-width="1.73" stroke-miterlimit="10" stroke-linecap="round" stroke-linejoin="round"/>
<path d="M73.7366 5.82588V44.0973C73.7366 46.8758 71.3901 49.2062 68.5922 49.2062H15.8846C13.0868 49.2062 10.7402 46.8758 10.7402 44.0973V5.82588C10.7402 3.04739 13.0868 0.717041 15.8846 0.717041H68.5922C71.3901 0.80667 73.7366 3.04739 73.7366 5.82588Z" stroke="#574E56" stroke-width="1.73" stroke-miterlimit="10"/>
<path d="M59.748 49.2958V1.07556" stroke="#574E56" stroke-width="1.73" stroke-miterlimit="10"/>
<path d="M67.3294 27.4264C68.6752 27.4264 69.7662 26.3429 69.7662 25.0064C69.7662 23.6699 68.6752 22.5864 67.3294 22.5864C65.9836 22.5864 64.8926 23.6699 64.8926 25.0064C64.8926 26.3429 65.9836 27.4264 67.3294 27.4264Z" stroke="#574E56" stroke-width="1.73" stroke-miterlimit="10"/>
<path d="M20.127 58.0794H5.86706C3.06923 58.0794 0.722656 55.7491 0.722656 52.9706V24.8272C0.722656 22.0487 3.06923 19.7183 5.86706 19.7183H20.0367C22.8346 19.7183 25.1811 22.0487 25.1811 24.8272V52.9706C25.2714 55.7491 22.9248 58.0794 20.127 58.0794Z" fill="white" stroke="#574E56" stroke-width="1.73" stroke-miterlimit="10"/>
<path d="M9.56649 47.5032C9.56649 47.6825 9.56649 47.8617 9.74699 47.9514C9.9275 48.1306 10.108 48.1306 10.2885 48.1306C12.9058 48.2202 15.4329 48.2202 18.0502 48.1306C18.0502 47.5928 18.0502 46.9654 18.1405 46.4277C18.1405 46.2484 18.1405 46.0692 18.0502 45.9795C17.96 45.8003 17.6892 45.8003 17.5087 45.8003C15.7037 45.621 13.8084 45.621 12.0033 45.7106C10.0178 45.8003 9.38598 45.5314 9.56649 47.5032Z" fill="#009EB0"/>
<path d="M16.6069 38.2715C14.1701 38.3611 11.8235 38.4507 9.38672 38.63C12.004 38.5403 13.9896 38.2715 16.6069 38.2715Z" stroke="#574E56" stroke-width="1.73" stroke-miterlimit="10" stroke-linecap="round" stroke-linejoin="round"/>
<path d="M9.38672 40.8707C11.9138 40.7811 14.5311 40.7811 17.0582 40.6914" stroke="#574E56" stroke-width="1.73" stroke-miterlimit="10" stroke-linecap="round" stroke-linejoin="round"/>
<path d="M9.56641 43.2907C12.0032 43.3803 14.3498 43.2907 16.7866 43.201" stroke="#574E56" stroke-width="1.73" stroke-miterlimit="10" stroke-linecap="round" stroke-linejoin="round"/>
<path d="M8.75506 48.1306C8.75506 48.3099 8.75506 48.4891 8.93557 48.5788C9.11607 48.758 9.29658 48.758 9.47708 48.758C12.0944 48.8477 14.6215 48.8477 17.2388 48.758C17.2388 48.2203 17.2388 47.5928 17.3291 47.0551C17.3291 46.8758 17.3291 46.6966 17.2388 46.6069C17.1486 46.4277 16.8778 46.4277 16.6973 46.4277C14.8922 46.2484 12.9969 46.2484 11.1919 46.338C9.11607 46.338 8.57456 46.0692 8.75506 48.1306Z" stroke="#574E56" stroke-width="1.73" stroke-miterlimit="10" stroke-linecap="round" stroke-linejoin="round"/>
<path d="M18.9535 25.0064C19.495 25.0064 20.1268 25.096 20.4878 25.5442C20.6683 25.8131 20.7585 26.2612 20.7585 26.6197C20.7585 29.0397 20.7585 31.4597 20.6683 33.8797C20.6683 34.0589 20.6683 34.1485 20.578 34.3278C20.3975 34.5967 20.0365 34.5967 19.7658 34.6863C15.6141 34.8656 11.5528 34.6863 7.40114 34.3278C7.31088 34.3278 7.22063 34.3278 7.13038 34.2382C7.04013 34.1485 7.04013 34.0589 7.04013 33.9693C7.04013 32.1767 7.04013 30.3841 7.04013 28.5019C7.04013 26.8886 6.49861 25.3649 8.21341 25.096C11.5528 24.4686 15.4336 25.0064 18.9535 25.0064Z" fill="#F39800"/>
<path d="M18.2308 25.5442C18.7723 25.5442 19.4041 25.6338 19.7651 26.082C19.9456 26.3509 20.0359 26.799 20.0359 27.1575C20.0359 29.5775 20.0359 31.9975 19.9456 34.4174C19.9456 34.5967 19.9456 34.6863 19.8554 34.8656C19.6749 35.1345 19.3139 35.1345 19.0431 35.2241C14.8915 35.4033 10.8301 35.2241 6.67848 34.8656C6.58823 34.8656 6.49798 34.8656 6.40772 34.7759C6.31747 34.6863 6.31747 34.5967 6.31747 34.5071C6.31747 32.7145 6.31747 30.9219 6.31747 29.0397C6.31747 27.4264 5.77595 25.9027 7.49076 25.6338C10.8301 25.0064 14.711 25.5442 18.2308 25.5442Z" stroke="#574E56" stroke-width="1.73" stroke-miterlimit="10"/>
<path d="M6.22852 34.4174C7.85306 32.9834 10.0191 30.8323 11.2827 29.1293C12.5462 30.2049 13.8097 31.2804 15.0733 32.356C15.4343 32.0871 15.7953 31.8182 16.1563 31.5493C16.2466 31.5493 16.2466 31.4597 16.3368 31.4597C16.4271 31.4597 16.4271 31.4597 16.5173 31.5493C17.4199 32.0871 19.0444 33.3419 19.8567 33.8797" stroke="#574E56" stroke-width="1.73" stroke-miterlimit="10" stroke-linecap="round" stroke-linejoin="round"/>
<path d="M0.8125 22.4072H25.271" stroke="#574E56" stroke-width="1.73" stroke-miterlimit="10"/>
<path d="M0.8125 51.895H25.271" stroke="#574E56" stroke-width="1.73" stroke-miterlimit="10"/>
<path d="M12.9965 56.735C13.9934 56.735 14.8015 55.9324 14.8015 54.9424C14.8015 53.9524 13.9934 53.1498 12.9965 53.1498C11.9996 53.1498 11.1914 53.9524 11.1914 54.9424C11.1914 55.9324 11.9996 56.735 12.9965 56.735Z" stroke="#574E56" stroke-width="1.73" stroke-miterlimit="10"/>
</g>
<defs>
<clipPath id="clip0">
<rect width="75" height="70" fill="white"/>
</clipPath>
</defs>
</svg>
