<svg width="41" height="41" viewBox="0 0 41 41" fill="none" xmlns="http://www.w3.org/2000/svg">
<g clip-path="url(#clip0)">
<path d="M33.6996 16.4522H28.4852C28.4852 11.2378 24.2428 6.99541 19.0284 6.99541C13.814 6.99541 9.57155 11.2378 9.57155 16.4522H4.3457C4.3457 8.35619 10.9323 1.78101 19.0169 1.78101C27.1244 1.78101 33.6996 8.35619 33.6996 16.4522Z" fill="#D5D4D6"/>
<path d="M33.8713 31.0663C33.6312 32.0497 33.6426 33.136 33.1623 34.028C30.7381 38.4648 26.0154 37.6186 22.9736 36.7152" stroke="#574E56" stroke-width="1.73" stroke-miterlimit="10" stroke-linecap="round" stroke-linejoin="round"/>
<path d="M4.04835 16.841C3.47659 16.841 2.8934 16.8524 2.37882 17.0926C1.33823 17.5728 0.869391 18.785 0.594948 19.8942C-0.0454176 22.5128 -0.171204 25.2458 0.229025 27.8987C0.343376 28.6535 0.526338 29.4654 1.10953 29.9685C1.38397 30.2086 1.72702 30.3459 2.05864 30.4831C4.07122 31.2492 6.24389 31.5694 8.38226 31.4208C8.6567 31.3979 8.95401 31.3636 9.14841 31.1692C9.35424 30.9519 9.37711 30.6203 9.38855 30.323C9.45716 27.6129 9.52577 24.9028 9.59438 22.1926C9.61725 21.1406 10.0403 18.1903 9.23989 17.3556C8.45087 16.5094 5.16899 16.841 4.04835 16.841Z" fill="#009EB0"/>
<path d="M5.60381 16.841C5.03206 16.841 4.44887 16.8524 3.93429 17.0926C2.89369 17.5728 2.42485 18.785 2.15041 19.8942C1.51004 22.5128 1.38426 25.2458 1.77305 27.8987C1.8874 28.6535 2.07036 29.4654 2.65355 29.9685C2.928 30.2086 3.27105 30.3459 3.60267 30.4831C5.61525 31.2492 7.78792 31.5694 9.92628 31.4208C10.2007 31.3979 10.498 31.3636 10.6924 31.1692C10.8983 30.9519 10.9211 30.6203 10.9326 30.323C11.0012 27.6129 11.0698 24.9028 11.1384 22.1926C11.1613 21.1406 11.5844 18.1903 10.7839 17.3556C9.99489 16.5094 6.72445 16.841 5.60381 16.841Z" stroke="#574E56" stroke-width="1.73" stroke-miterlimit="10" stroke-linecap="round" stroke-linejoin="round"/>
<path d="M33.8021 16.841C34.3738 16.841 34.957 16.8524 35.4716 17.0926C36.5122 17.5729 36.981 18.785 37.2555 19.8942C37.8958 22.5014 38.0216 25.2344 37.6214 27.8873C37.5071 28.642 37.3241 29.4539 36.7409 29.9571C36.4665 30.1972 36.1234 30.3344 35.7918 30.4717C33.7792 31.2378 31.6065 31.558 29.4682 31.4093C29.1937 31.3865 28.8964 31.3522 28.702 31.1578C28.4962 30.9405 28.4733 30.6089 28.4619 30.3116C28.3933 27.6014 28.3247 24.8913 28.256 22.1812C28.2332 21.1292 27.8101 18.1789 28.6105 17.3442C29.411 16.5094 32.6814 16.841 33.8021 16.841Z" fill="#009EB0"/>
<path d="M35.5404 16.841C36.1121 16.841 36.6953 16.8524 37.2099 17.0926C38.2505 17.5729 38.7193 18.785 38.9938 19.8942C39.6341 22.5014 39.7599 25.2344 39.3597 27.8873C39.2453 28.642 39.0624 29.4539 38.4792 29.9571C38.2047 30.1972 37.8617 30.3344 37.5301 30.4717C35.5175 31.2378 33.3448 31.558 31.2065 31.4093C30.932 31.3865 30.6347 31.3522 30.4403 31.1578C30.2345 30.9405 30.2116 30.6089 30.2002 30.3116C30.1316 27.6014 30.0629 24.8913 29.9943 22.1812C29.9715 21.1292 29.5484 18.1789 30.3488 17.3442C31.1493 16.5094 34.4312 16.841 35.5404 16.841Z" stroke="#574E56" stroke-width="1.73" stroke-miterlimit="10" stroke-linecap="round" stroke-linejoin="round"/>
<path d="M19.0284 39.8027C21.2009 39.8027 22.9621 38.2412 22.9621 36.315C22.9621 34.3888 21.2009 32.8273 19.0284 32.8273C16.8559 32.8273 15.0947 34.3888 15.0947 36.315C15.0947 38.2412 16.8559 39.8027 19.0284 39.8027Z" stroke="#574E56" stroke-width="1.73" stroke-miterlimit="10" stroke-linecap="round" stroke-linejoin="round"/>
<path d="M35.5063 16.4522H30.2919C30.2919 11.2378 26.0494 6.99541 20.835 6.99541C15.6206 6.99541 11.3782 11.2378 11.3782 16.4522H6.15234C6.15234 8.35619 12.739 1.78101 20.8236 1.78101C28.9196 1.78101 35.5063 8.35619 35.5063 16.4522Z" stroke="#574E56" stroke-width="1.73" stroke-miterlimit="10" stroke-linecap="round" stroke-linejoin="round"/>
</g>
<defs>
<clipPath id="clip0">
<rect width="40.5832" height="40" fill="white" transform="translate(0 0.786133)"/>
</clipPath>
</defs>
</svg>
