<svg width="40" height="40" viewBox="0 0 40 40" fill="none" xmlns="http://www.w3.org/2000/svg">
<path d="M23.0675 30.1668L23.0562 30.1667L23.0448 30.1667C23.0199 30.1668 22.9953 30.1613 22.9728 30.1506C22.9508 30.1402 22.9313 30.125 22.9157 30.1061C22.9154 30.1058 22.9151 30.1054 22.9148 30.1051L14.8684 20.1095L14.8636 20.1035L14.8587 20.0976C14.8342 20.0677 14.8208 20.0303 14.8208 19.9917C14.8208 19.9539 14.8336 19.9173 14.8572 19.8878L23.1856 9.89366L23.1868 9.89219C23.2154 9.85777 23.2566 9.83613 23.3011 9.83202C23.3457 9.82791 23.3901 9.84167 23.4245 9.87028C23.4589 9.89888 23.4805 9.93999 23.4846 9.98456C23.4887 10.029 23.4751 10.0732 23.4467 10.1075C23.4466 10.1077 23.4465 10.1078 23.4464 10.1079L15.998 19.0394L15.2103 19.9838L15.9821 20.9413L23.1821 29.8747L23.1897 29.8841L23.1975 29.8935C23.2179 29.918 23.2308 29.9478 23.2348 29.9793C23.2388 30.0109 23.2336 30.043 23.2199 30.0718C23.2063 30.1005 23.1846 30.1247 23.1576 30.1416C23.1306 30.1584 23.0993 30.1672 23.0675 30.1668Z" fill="#4E4D4D" stroke="#4E4D4D" stroke-width="3"/>
</svg>
