<svg width="68" height="59" viewBox="0 0 68 59" fill="none" xmlns="http://www.w3.org/2000/svg">
<g clip-path="url(#clip0)">
<path d="M27.0704 0.507358C28.2378 0.507358 29.4781 0.652321 30.2077 1.5221C30.6455 2.17443 30.6455 3.04421 30.6455 3.76903C30.6455 8.84274 30.5725 13.844 30.4996 18.8452C30.4996 19.1351 30.4996 19.4251 30.3537 19.715C30.0618 20.2223 29.3322 20.3673 28.6755 20.3673C20.1391 20.6572 11.5296 20.4398 3.06611 19.6425C2.84722 19.6425 2.62834 19.57 2.48242 19.425C2.33649 19.2801 2.33649 19.0626 2.33649 18.8452C2.33649 15.0762 2.33649 11.3071 2.33649 7.61055C2.33649 4.34888 1.16911 1.15969 4.74422 0.579839C11.8215 -0.652347 19.9202 0.507358 27.0704 0.507358Z" fill="#D5D4D6"/>
<path d="M25.5372 1.66706C26.7046 1.66706 27.9449 1.81202 28.6745 2.6818C29.1123 3.33413 29.1853 4.13143 29.1123 4.92873C29.0393 9.92996 29.0393 14.9312 28.9664 20.0049C28.9664 20.2948 28.9664 20.5847 28.8205 20.8747C28.5286 21.382 27.799 21.527 27.1423 21.527C18.6059 21.8169 9.99642 21.5995 1.53291 20.8022C1.31402 20.8022 1.09514 20.7297 0.949214 20.5847C0.803291 20.4398 0.803291 20.2223 0.803291 20.0049C0.803291 16.2359 0.803291 12.4668 0.803291 8.77025C0.803291 5.50858 -0.36409 2.31939 3.21102 1.73954C10.2883 0.507351 18.4599 1.66706 25.5372 1.66706Z" stroke="#574E56" stroke-width="1.73" stroke-miterlimit="10"/>
<path d="M0.802734 20.0049C4.15896 17.1056 8.6096 12.6118 11.3092 9.13266C13.9358 11.3071 16.4894 13.554 19.116 15.7285C19.8457 15.1486 20.5753 14.5688 21.3049 14.0614C21.3778 13.9889 21.5238 13.9164 21.6697 13.9164C21.8156 13.9164 21.9615 13.9889 22.0345 14.0614C23.8585 15.2211 27.2148 17.758 29.0388 18.9902" stroke="#574E56" stroke-width="1.73" stroke-miterlimit="10" stroke-linecap="round" stroke-linejoin="round"/>
<path d="M64.4259 17.758C65.5932 17.758 66.8336 17.9029 67.5632 18.7727C68.001 19.4251 68.0739 20.2224 68.001 21.0196C67.928 26.0209 67.928 31.0221 67.855 36.0958C67.855 36.3857 67.855 36.6757 67.7091 36.9656C67.4173 37.473 66.6877 37.6179 66.031 37.6179C57.4945 37.9079 48.8851 37.6904 40.4216 36.8931C40.2027 36.8931 39.9838 36.8206 39.8379 36.6757C39.692 36.5307 39.692 36.3133 39.692 36.0958C39.692 32.3268 39.692 28.5577 39.692 24.8612C39.692 21.5995 38.5246 18.4103 42.0997 17.8305C49.1769 16.5258 57.3486 17.758 64.4259 17.758Z" fill="#F39800"/>
<path d="M62.9669 18.9177C64.1343 18.9177 65.3746 19.0626 66.1042 19.9324C66.542 20.5847 66.6149 21.382 66.542 22.1793C66.469 27.1806 66.469 32.1818 66.3961 37.2555C66.3961 37.5454 66.3961 37.8354 66.2501 38.1253C65.9583 38.6326 65.2287 38.7776 64.572 38.7776C56.0356 39.0675 47.4261 38.8501 38.9626 38.0528C38.7437 38.0528 38.5248 37.9803 38.3789 37.8354C38.233 37.6904 38.233 37.4729 38.233 37.2555C38.233 33.4865 38.233 29.7174 38.233 26.0209C38.233 22.7592 37.0656 19.57 40.6407 18.9901C47.645 17.758 55.8167 18.9177 62.9669 18.9177Z" stroke="#574E56" stroke-width="1.73" stroke-miterlimit="10"/>
<path d="M38.2324 37.2555C41.5886 34.3563 46.0393 29.8624 48.7389 26.3833C51.3655 28.5577 53.9191 30.8047 56.5457 32.9791C57.2753 32.3993 58.005 31.8194 58.7346 31.312C58.8075 31.2396 58.9535 31.1671 59.0994 31.1671C59.2453 31.1671 59.3912 31.2396 59.4642 31.312C61.2882 32.4718 64.6444 35.0086 66.4685 36.2408" stroke="#574E56" stroke-width="1.73" stroke-miterlimit="10" stroke-linecap="round" stroke-linejoin="round"/>
<path d="M47.207 29.7174C48.7392 29.7174 50.4903 29.8624 51.4388 31.0946C52.0954 31.9644 52.0954 33.1241 52.0954 34.1388C52.0225 40.9521 51.9495 47.7654 51.9495 54.5786C51.9495 55.0135 51.9495 55.3759 51.7306 55.7383C51.2929 56.4631 50.3444 56.6081 49.4688 56.6081C37.868 56.9705 26.1942 56.6806 14.6663 55.6658C14.3744 55.6658 14.0826 55.5934 13.8637 55.3759C13.6448 55.1585 13.6448 54.8685 13.6448 54.5786C13.6448 49.5049 13.6448 44.3587 13.6448 39.285C13.6448 34.8636 12.0396 30.5872 16.9281 29.7174C26.413 28.1228 37.5032 29.7174 47.207 29.7174Z" fill="#009EB0"/>
<path d="M45.0918 31.312C46.624 31.312 48.3751 31.457 49.3235 32.6892C49.9802 33.559 49.9802 34.7187 49.9802 35.7334C49.9072 42.5467 49.8343 49.36 49.8343 56.1732C49.8343 56.6081 49.8343 56.9705 49.6154 57.3329C49.1776 58.0577 48.2291 58.2027 47.3536 58.2027C35.7527 58.6376 24.0789 58.2752 12.551 57.2604C12.2592 57.2604 11.9673 57.188 11.7484 56.9705C11.5296 56.7531 11.5296 56.4631 11.5296 56.1732C11.5296 51.0995 11.5296 45.9533 11.5296 40.8796C11.5296 36.4582 9.92441 32.1818 14.8128 31.312C24.3708 29.7174 35.4609 31.312 45.0918 31.312Z" stroke="#574E56" stroke-width="1.73" stroke-miterlimit="10"/>
<path d="M11.5293 56.1732C16.0529 52.2592 22.1087 46.0983 25.7568 41.387C29.2589 44.3587 32.834 47.4029 36.3362 50.3747C37.3576 49.5774 38.3061 48.8526 39.3276 48.0553C39.4735 47.9103 39.6194 47.8378 39.8383 47.8378C39.9842 47.8378 40.2031 47.9103 40.349 48.0553C42.9027 49.6499 47.3533 53.129 49.834 54.7236" stroke="#574E56" stroke-width="1.73" stroke-miterlimit="10" stroke-linecap="round" stroke-linejoin="round"/>
</g>
<defs>
<clipPath id="clip0">
<rect width="68" height="59" fill="white"/>
</clipPath>
</defs>
</svg>
