<svg width="39" height="61" viewBox="0 0 39 61" fill="none" xmlns="http://www.w3.org/2000/svg">
<g clip-path="url(#clip0)">
<path d="M14.2081 43.9142C14.2081 44.1323 14.2806 44.4231 14.4256 44.6412C14.6431 44.8593 15.0055 44.932 15.2955 44.932C19.2825 45.0774 23.2695 45.0774 27.2565 45.0047C27.2565 44.1323 27.329 43.1871 27.329 42.3146C27.329 42.0238 27.329 41.8057 27.184 41.5876C27.039 41.3695 26.6765 41.2967 26.3866 41.2967C23.5594 41.0786 20.6598 41.0059 17.8327 41.1513C14.8606 41.224 13.9182 40.7151 14.2081 43.9142Z" fill="#009EB0"/>
<path d="M25.009 29.4457C21.312 29.5912 17.615 29.8093 13.918 29.9547C17.9774 29.9547 21.0221 29.5184 25.009 29.4457Z" stroke="#574E56" stroke-width="1.73" stroke-miterlimit="10" stroke-linecap="round" stroke-linejoin="round"/>
<path d="M13.918 33.59C17.8325 33.5173 21.8195 33.3719 25.734 33.2992" stroke="#574E56" stroke-width="1.73" stroke-miterlimit="10" stroke-linecap="round" stroke-linejoin="round"/>
<path d="M14.209 37.3707C17.906 37.5161 21.603 37.4434 25.3001 37.1526" stroke="#574E56" stroke-width="1.73" stroke-miterlimit="10" stroke-linecap="round" stroke-linejoin="round"/>
<path d="M12.9034 44.7866C12.9034 45.0047 12.9758 45.2956 13.1208 45.5137C13.3383 45.7318 13.7007 45.8045 13.9907 45.8045C17.9777 45.9499 21.9647 45.9499 25.9517 45.8772C25.9517 45.0047 26.0242 44.0596 26.0242 43.1871C26.0242 42.8963 26.0242 42.6782 25.8792 42.46C25.7342 42.1692 25.3718 42.1692 25.1543 42.0965C22.3271 41.8784 19.4275 41.8057 16.6004 41.9511C13.5558 42.0965 12.6134 41.6603 12.9034 44.7866Z" stroke="#574E56" stroke-width="1.73" stroke-miterlimit="10" stroke-linecap="round" stroke-linejoin="round"/>
<path d="M28.633 8.79736C29.5029 8.79736 30.4453 8.87007 30.9527 9.59712C31.3152 10.1061 31.3152 10.6877 31.3152 11.2694C31.3152 15.05 31.2427 18.8307 31.2427 22.6114C31.2427 22.8295 31.2427 23.0477 31.0977 23.2658C30.8802 23.702 30.3003 23.7747 29.8654 23.7747C23.4862 23.9928 17.107 23.7747 10.8003 23.2658C10.6553 23.2658 10.4378 23.1931 10.3654 23.1204C10.2929 22.9749 10.2929 22.8295 10.2929 22.6841C10.2929 19.8486 10.2929 17.0131 10.2929 14.2503C10.2929 11.7783 9.42297 9.45171 12.1051 8.94277C17.252 7.92489 23.3412 8.79736 28.633 8.79736Z" fill="#F39800"/>
<path d="M27.4748 9.66983C28.3447 9.66983 29.2871 9.74253 29.7945 10.4696C30.157 10.9785 30.157 11.5602 30.157 12.1418C30.157 15.9225 30.0845 19.7032 30.0845 23.4839C30.0845 23.702 30.0845 23.9201 29.9395 24.1382C29.722 24.5745 29.1421 24.6472 28.7071 24.6472C22.328 24.8653 15.9488 24.6472 9.64209 24.1382C9.49711 24.1382 9.27964 24.0655 9.20715 23.9928C9.13466 23.8474 9.13466 23.702 9.13466 23.5566C9.13466 20.7211 9.13466 17.8856 9.13466 15.1227C9.13466 12.6508 8.26477 10.3242 10.9469 9.81524C16.0938 8.79736 22.183 9.66983 27.4748 9.66983Z" stroke="#574E56" stroke-width="1.73" stroke-miterlimit="10"/>
<path d="M9.0625 23.4839C11.5272 21.3027 14.8618 17.8856 16.8915 15.2682C18.8487 16.9404 20.7335 18.6126 22.6908 20.2121C23.2707 19.7759 23.7781 19.3397 24.358 18.9034C24.4305 18.8307 24.503 18.758 24.648 18.758C24.7205 18.758 24.8655 18.8307 24.938 18.8307C26.3153 19.7032 28.78 21.6663 30.1573 22.5387" stroke="#574E56" stroke-width="1.73" stroke-miterlimit="10" stroke-linecap="round" stroke-linejoin="round"/>
<path d="M34.2883 60.3456H4.71205C2.46484 60.3456 0.580078 58.4553 0.580078 56.2014V4.72585C0.580078 2.47198 2.46484 0.581635 4.71205 0.581635H34.2158C36.463 0.581635 38.3477 2.47198 38.3477 4.72585V56.2014C38.4202 58.528 36.5355 60.3456 34.2883 60.3456Z" stroke="#574E56" stroke-width="1.73" stroke-miterlimit="10"/>
<path d="M0.652344 4.72586H38.42" stroke="#574E56" stroke-width="1.73" stroke-miterlimit="10"/>
<path d="M0.652344 50.6758H38.42" stroke="#574E56" stroke-width="1.73" stroke-miterlimit="10"/>
<path d="M19.5007 58.2372C21.0221 58.2372 22.2554 57.0002 22.2554 55.4744C22.2554 53.9485 21.0221 52.7115 19.5007 52.7115C17.9794 52.7115 16.7461 53.9485 16.7461 55.4744C16.7461 57.0002 17.9794 58.2372 19.5007 58.2372Z" stroke="#574E56" stroke-width="1.73" stroke-miterlimit="10"/>
</g>
<defs>
<clipPath id="clip0">
<rect width="39" height="61" fill="white"/>
</clipPath>
</defs>
</svg>
