<svg width="106" height="106" viewBox="0 0 106 106" fill="none" xmlns="http://www.w3.org/2000/svg">
<g clip-path="url(#clip0)">
<path d="M51.4077 102.908C79.7994 102.908 102.815 79.8714 102.815 51.4541C102.815 23.0368 79.7994 0 51.4077 0C23.016 0 0 23.0368 0 51.4541C0 79.8714 23.016 102.908 51.4077 102.908Z" fill="#D4E6FF"/>
<path d="M60.1924 53.4941L67.7307 58.808L73.7586 48.8906L73.4583 73.115L85.0501 73.0285L84.7498 28.9146H73.1171L60.1924 53.4941Z" fill="#F19600"/>
<path d="M50.434 52.342L55.0243 52.3647L57.1171 48.2256L51.2347 48.1983L53.3684 37.1516L48.537 37.1289L46.4033 48.1756L39.8431 48.1437L41.9768 37.097L37.1454 37.0742L35.0117 48.1209L28.4652 48.089L26.3725 52.2281L34.2065 52.2646L32.8735 59.1676L27.0322 59.1403L24.9395 63.2794L32.0728 63.3113L30.0711 73.6704L34.9025 73.6932L36.9043 63.334L43.4644 63.3659L41.4627 73.725L46.2941 73.7478L48.2958 63.3887L53.5913 63.4114L55.684 59.2723L49.0965 59.2405L50.434 52.342ZM37.7095 59.1949L39.0425 52.2919L45.6026 52.3238L44.2697 59.2268L37.7095 59.1949Z" fill="#F19600"/>
<path d="M95.2131 13.2372C92.7109 10.924 82.5931 3.57476 60.0556 3.47459C60.0556 3.47459 33.4783 1.87177 20.5263 13.7654C13.3155 20.9826 10.777 31.5467 10.5086 44.6424C10.2402 57.7382 9.89442 82.2859 33.5329 88.9385H33.5556L33.542 99.0927C33.542 99.0927 33.3918 103.204 36.0942 104.042C39.3652 105.058 41.285 101.934 44.4104 98.5645C46.1255 96.7158 48.4912 93.9974 50.2745 91.921C66.4429 93.2825 78.8763 90.1679 80.2866 89.708C83.5485 88.6471 102.023 86.2793 105.026 61.7361C108.129 36.4507 103.529 20.4499 95.2131 13.2372ZM97.9518 59.9329C95.4178 80.4235 80.4368 81.7121 77.6753 82.6001C76.5016 82.978 65.5786 85.6964 51.8486 84.7994C51.8486 84.7994 41.6171 97.1529 38.4189 100.368C37.9185 100.869 37.3316 101.073 36.9403 100.973C36.3899 100.837 36.2397 100.186 36.2443 99.2339C36.2534 97.8724 36.3307 82.3587 36.3307 82.3587C36.3307 82.3587 36.3171 82.3587 36.3307 82.3587C16.3363 76.8035 17.5009 55.9122 17.7284 44.9748C17.9559 34.0374 20.0076 25.0762 26.1083 19.0474C37.0677 9.10722 59.6416 10.5916 59.6416 10.5916C78.7035 10.6736 87.8386 16.4201 89.9586 18.3462C96.9919 24.375 100.577 38.7958 97.9563 59.9238V59.9329H97.9518Z" fill="#7874F4"/>
<path d="M93.853 14.6029C91.3509 12.2898 81.2331 4.94049 58.6956 4.84031C58.6956 4.84031 32.1183 3.23749 19.1662 15.1311C11.9555 22.3484 9.41698 32.9124 9.15312 46.0081C8.8847 59.1039 8.53896 83.6516 32.1774 90.3042H32.2002L32.1865 100.458C32.1865 100.458 32.0364 104.57 34.7387 105.408C38.0097 106.423 39.9295 103.3 43.0549 99.9302C44.77 98.0815 47.1357 95.3631 48.919 93.2867C65.0874 94.6482 77.5208 91.5336 78.9311 91.0737C82.193 90.0128 100.668 87.645 103.671 63.1018C106.769 37.8119 102.169 21.8111 93.853 14.6029ZM96.5963 61.2941C94.0623 81.7847 79.0813 83.0733 76.3198 83.9612C75.1461 84.3392 64.2231 87.0576 50.4931 86.1606C50.4931 86.1606 40.2616 98.5141 37.0634 101.729C36.563 102.23 35.9761 102.435 35.5849 102.334C35.0344 102.198 34.8843 101.547 34.8888 100.595C34.8979 99.2335 34.9753 83.7199 34.9753 83.7199C34.9753 83.7199 34.9616 83.7199 34.9753 83.7199C14.9808 78.1647 16.1455 57.2734 16.3729 46.336C16.6004 35.3986 18.6522 26.4374 24.7529 20.4086C35.7077 10.4729 58.2816 11.9574 58.2816 11.9574C77.3434 12.0393 86.4785 17.7858 88.5985 19.7119C95.6318 25.7407 99.2167 40.1615 96.5963 61.2896V61.2941V61.2941Z" stroke="#574E56" stroke-width="1.73" stroke-miterlimit="10" stroke-linecap="round" stroke-linejoin="round"/>
<path d="M59.1553 52.1097L66.6981 57.4236L72.726 47.5107L72.4257 71.7305L84.013 71.644L83.7127 27.5347H72.08L59.1553 52.1097Z" stroke="#574E56" stroke-width="1.73" stroke-miterlimit="10" stroke-linecap="round" stroke-linejoin="round"/>
<path d="M49.7336 51.2631H54.3239L56.3939 47.1149H50.5116L52.5952 36.0591H47.7637L45.6801 47.1149H39.12L41.2036 36.0591H36.3722L34.2885 47.1149H27.742L25.6721 51.2631H33.5106L32.2095 58.1752H26.359L24.2891 62.3234H31.4225L29.4662 72.6917H34.2976L36.2539 62.3234H42.814L40.8578 72.6917H45.6892L47.6455 62.3234H52.9409L55.0109 58.1752H48.4234L49.7336 51.2631ZM37.0364 58.1752L38.3375 51.2631H44.8976L43.5965 58.1752H37.0364V58.1752Z" stroke="#574E56" stroke-width="1.73" stroke-miterlimit="10" stroke-linecap="round" stroke-linejoin="round"/>
</g>
<defs>
<clipPath id="clip0">
<rect width="106" height="106" fill="white"/>
</clipPath>
</defs>
</svg>
